<?xml version="1.0" encoding="UTF-8"?>
<svg xmlns="http://www.w3.org/2000/svg" xmlns:xlink="http://www.w3.org/1999/xlink" width="2606" height="3000" viewBox="0 0 2606 3000">
<path fill-rule="nonzero" fill="rgb(0%, 0%, 0%)" fill-opacity="1" d="M 1086.109375 2876.976562 C 807.007812 2692.398438 272.519531 2355.625 135.167969 2277.808594 L 13.984375 2209.148438 L 71.609375 2169.230469 C 103.300781 2147.277344 238.957031 2063.589844 373.0625 1983.261719 L 616.894531 1837.199219 L 746.457031 1913.648438 C 1014.390625 2071.734375 1227.328125 2211.398438 1253.378906 2246.136719 C 1277.660156 2278.527344 1279.910156 2317.527344 1276.230469 2641.039062 L 1272.128906 3000 Z M 1340.691406 2612.691406 L 1348.308594 2237.988281 L 1416.871094 2189.015625 C 1503.78125 2126.9375 1981.949219 1832.230469 1995.769531 1832.230469 C 2001.460938 1832.230469 2104.910156 1891.230469 2225.679688 1963.339844 C 2346.429688 2035.449219 2480.890625 2113.59375 2524.460938 2136.992188 L 2603.679688 2179.535156 L 2440.671875 2285.746094 C 2351.011719 2344.164062 2109.679688 2496.410156 1904.390625 2624.074219 C 1699.101562 2751.738281 1493.53125 2881.175781 1447.578125 2911.71875 C 1401.628906 2942.257812 1357.058594 2971.777344 1348.550781 2977.316406 C 1338.140625 2984.089844 1335.570312 2864.582031 1340.691406 2612.691406 Z M 1142.628906 2088.851562 C 1079.789062 2047.960938 940.960938 1961.921875 834.125 1897.648438 L 639.875 1780.800781 L 639.875 1178.671875 L 689.390625 1140.949219 C 716.621094 1120.199219 855.453125 1031.300781 997.902344 943.390625 L 1256.898438 783.539062 L 1264.519531 1464.050781 C 1268.710938 1838.320312 1268.710938 2148.746094 1264.519531 2153.875 C 1260.320312 2159 1205.480469 2129.742188 1142.628906 2088.851562 Z M 1327.25 1481.808594 C 1322.890625 967.96875 1325.871094 796.238281 1339.128906 796.238281 C 1348.871094 796.238281 1454.320312 856.421875 1573.480469 929.96875 C 1692.640625 1003.519531 1829.550781 1087.238281 1877.730469 1116.011719 L 1965.328125 1168.320312 L 1965.328125 1769.019531 L 1725.378906 1917.308594 C 1593.398438 1998.871094 1453.660156 2088.507812 1414.820312 2116.503906 C 1376 2144.496094 1341.71875 2167.394531 1338.648438 2167.386719 C 1335.578125 2167.378906 1330.449219 1858.871094 1327.25 1481.808594 Z M 0 1482.410156 C 0 1112 5.511719 811.21875 12.25 814.019531 C 24.433594 819.070312 227.675781 947.789062 453.25 1093.320312 L 571.316406 1169.5 L 575.441406 1467.75 C 579.164062 1737.25 576.960938 1768.25 552.585938 1789.339844 C 537.753906 1802.179688 422.777344 1879.011719 297.085938 1960.078125 C 171.398438 2041.148438 53.132812 2118.367188 34.28125 2131.679688 L 0 2155.882812 Z M 2549.769531 2097.480469 C 2523.460938 2076.566406 2396.628906 1996.101562 2267.910156 1918.660156 L 2033.890625 1777.871094 L 2029.769531 1470.820312 L 2025.640625 1163.78125 L 2090.710938 1119.160156 C 2182.441406 1056.25 2348.710938 955.460938 2487.128906 878.859375 L 2605.199219 813.53125 L 2605.199219 1475.230469 C 2605.199219 1839.160156 2603.488281 2136.609375 2601.398438 2136.214844 C 2599.300781 2135.824219 2576.070312 2118.390625 2549.769531 2097.480469 Z M 417.976562 1005.128906 C 334.726562 952.441406 220.339844 882.460938 163.777344 849.621094 C 107.21875 816.78125 60.941406 785.359375 60.941406 779.800781 C 60.941406 774.238281 144.925781 719.710938 247.570312 658.640625 C 491.1875 513.671875 745.160156 355.058594 1030.949219 169.390625 C 1158.058594 86.808594 1266.03125 19.25 1270.898438 19.25 C 1282.808594 19.25 1282.261719 597.058594 1270.300781 656.859375 C 1262.101562 697.859375 1231.960938 722.371094 1042.140625 842.359375 C 746.113281 1029.480469 622.109375 1100.941406 593.421875 1100.941406 C 580.171875 1100.941406 501.222656 1057.828125 417.976562 1005.128906 Z M 1668.03125 918.121094 C 1508.941406 817.570312 1370.578125 730.101562 1360.558594 723.730469 C 1347.800781 715.621094 1339.078125 605.371094 1331.488281 356.078125 L 1320.640625 0 L 1403.039062 52.941406 C 1448.351562 82.070312 1547.128906 146.238281 1622.539062 195.550781 C 1775.628906 295.640625 2184.890625 550.179688 2409.109375 684.738281 L 2555.808594 772.78125 L 2416.730469 850.199219 C 2340.230469 892.78125 2210.570312 966.621094 2128.570312 1014.28125 C 2046.570312 1061.941406 1974.488281 1100.941406 1968.378906 1100.941406 C 1962.28125 1100.941406 1827.121094 1018.679688 1668.03125 918.121094 Z M 1668.03125 918.121094 "/>
</svg>
